<svg width="174" height="28" viewBox="0 0 174 28" fill="none" xmlns="http://www.w3.org/2000/svg">
<path d="M18.0499 27.3702H0V23.5391H2.33981V3.83109H0V0H6.75945V3.83109V23.5391H14.076V21.2183H18.0499V27.3702Z" fill="white"/>
<path d="M23.9923 27.3702C22.841 27.3702 21.9496 27.0755 21.3182 26.4861C20.6869 25.8967 20.3526 25.0494 20.3526 23.9443V12.8931C20.3526 11.7511 20.6497 10.9039 21.2811 10.2776C21.9125 9.68823 22.8038 9.35669 23.9923 9.35669H30.0089C31.1974 9.35669 32.1259 9.65139 32.7202 10.2408C33.3515 10.8302 33.6486 11.7143 33.6486 12.8562V19.7817H24.4008V23.8706H29.6376V21.7709H33.6486V23.9443C33.6486 25.0126 33.3515 25.8598 32.7202 26.4492C32.0888 27.0386 31.1974 27.3333 30.0089 27.3333H23.9923V27.3702ZM24.4008 12.8562V16.7242H29.6376V12.8562H24.4008Z" fill="white"/>
<path d="M52.07 7.03594C52.1072 7.40431 52.1814 7.80952 52.2186 8.21473C52.2929 8.61995 52.2929 8.95148 52.2929 9.31986L52.4043 11.2722V27.407H45.942V23.5391H48.2818V3.83109H45.942V0H52.8871L63.3605 20.2974L63.1006 18.0503L63.0263 16.0979V0H69.4515V3.83109H67.1117V27.407H62.9149L52.07 7.03594Z" fill="white"/>
<path d="M75.5795 27.3702C74.4282 27.3702 73.5368 27.0755 72.9055 26.4861C72.2741 25.8967 71.9398 25.0494 71.9398 23.9443V12.8931C71.9398 11.7511 72.2369 10.9039 72.8683 10.2776C73.4997 9.68823 74.391 9.35669 75.5795 9.35669H81.5962C82.7846 9.35669 83.7131 9.65139 84.3074 10.2408C84.9387 10.8302 85.2359 11.7143 85.2359 12.8562V19.7817H75.9881V23.8706H81.2248V21.7709H85.2359V23.9443C85.2359 25.0126 84.9387 25.8598 84.3074 26.4492C83.676 27.0386 82.7846 27.3333 81.5962 27.3333H75.5795V27.3702ZM75.9881 12.8562V16.7242H81.2248V12.8562H75.9881Z" fill="white"/>
<path d="M93.5923 23.9075H96.3778V27.3702H93.8152C92.4039 27.3702 91.3639 27.0387 90.6212 26.3388C89.8784 25.6388 89.507 24.6442 89.507 23.3181V12.9299H87.4271V9.39356H89.507V4.31H93.5923V9.39356H96.3778V12.9299H93.5923V23.9075Z" fill="white"/>
<path d="M102.283 27.3702L99.5347 12.8563H97.4177V9.39355H103.174L105.106 23.2812L108.634 9.39355H112.608L116.136 23.2812L118.179 9.39355H123.787V12.8563H121.707L118.885 27.3702H114.094L110.454 14.4034L106.963 27.3702H102.283Z" fill="white"/>
<path d="M129.432 27.3702C128.281 27.3702 127.352 27.0755 126.721 26.4861C126.09 25.8967 125.755 25.0494 125.755 23.9443V12.8931C125.755 11.7511 126.052 10.9039 126.684 10.2776C127.315 9.68823 128.207 9.35669 129.395 9.35669H135.412C136.6 9.35669 137.529 9.65139 138.123 10.2408C138.754 10.8302 139.051 11.7143 139.051 12.8562V23.9075C139.051 25.0126 138.717 25.8598 138.086 26.4492C137.454 27.0386 136.563 27.3333 135.375 27.3333H129.432V27.3702ZM129.841 23.9075H135.077V12.8562H129.841V23.9075Z" fill="white"/>
<path d="M141.354 23.9075H143.508V12.8563H141.354V9.39355H150.639C152.05 9.39355 153.09 9.72509 153.833 10.425C154.576 11.1249 154.947 12.1195 154.947 13.4457V16.6137H151.01V12.8563H147.445V23.9075H149.562V27.3702H141.354V23.9075V23.9075Z" fill="white"/>
<path d="M158.476 3.46271H156.396V0H162.561V16.8715L168.02 9.39353H172.477V12.9299H169.989L166.238 17.903L171.66 23.8338H174.037V27.3702H169.543L162.561 19.5975V27.3702H156.396V23.8338H158.476V3.46271V3.46271Z" fill="white"/>
</svg>
